<svg width="12" height="24" viewBox="0 0 12 24" fill="none" xmlns="http://www.w3.org/2000/svg">
<path opacity="0.749" d="M10.6485 23.7516C10.7191 23.8301 10.8055 23.8928 10.902 23.9355C10.9985 23.9782 11.103 24.0001 11.2085 23.9996C11.3142 24.0002 11.4189 23.9784 11.5156 23.9357C11.6123 23.893 11.6988 23.8302 11.7695 23.7516C11.9188 23.5875 12.0015 23.3735 12.0015 23.1516C12.0015 22.9298 11.9188 22.7158 11.7695 22.5516L1.91451 11.9996L11.7695 1.44764C11.9188 1.28345 12.0015 1.06953 12.0015 0.847639C12.0015 0.625751 11.9188 0.411828 11.7695 0.247639C11.6986 0.169636 11.6121 0.107316 11.5157 0.0646722C11.4192 0.0220279 11.315 0 11.2095 0C11.1041 0 10.9998 0.0220279 10.9034 0.0646722C10.8069 0.107316 10.7205 0.169636 10.6495 0.247639L0.232513 11.3996C-0.077487 11.7306 -0.077487 12.2686 0.232513 12.5996L10.6485 23.7516Z" fill="white"/>
</svg>
