<svg width="12" height="24" viewBox="0 0 12 24" fill="none" xmlns="http://www.w3.org/2000/svg">
<path id="Vector" opacity="0.749" d="M10.649 23.7516C10.7196 23.8301 10.806 23.8928 10.9025 23.9355C10.999 23.9782 11.1035 24.0001 11.209 23.9996C11.3147 24.0002 11.4194 23.9784 11.5161 23.9357C11.6127 23.893 11.6993 23.8302 11.77 23.7516C11.9193 23.5875 12.002 23.3735 12.002 23.1516C12.002 22.9298 11.9193 22.7158 11.77 22.5516L1.915 11.9996L11.77 1.44764C11.9193 1.28345 12.002 1.06953 12.002 0.847639C12.002 0.625751 11.9193 0.411828 11.77 0.247639C11.6991 0.169636 11.6126 0.107316 11.5162 0.0646722C11.4197 0.0220279 11.3154 0 11.21 0C11.1046 0 11.0003 0.0220279 10.9038 0.0646722C10.8074 0.107316 10.721 0.169636 10.65 0.247639L0.233002 11.3996C-0.0769987 11.7306 -0.0769987 12.2686 0.233002 12.5996L10.649 23.7516Z" fill="black"/>
</svg>
