<svg width="12" height="24" viewBox="0 0 12 24" fill="none" xmlns="http://www.w3.org/2000/svg">
<g id="Button &#226;&#134;&#146; SVG">
<path id="Vector" opacity="0.749" d="M1.35295 23.7521C1.28235 23.8306 1.19597 23.8932 1.09946 23.936C1.00295 23.9787 0.898499 24.0006 0.792952 24.0001C0.687236 24.0007 0.582592 23.9789 0.485901 23.9362C0.38921 23.8934 0.302663 23.8307 0.231952 23.7521C0.0826994 23.5879 0 23.374 0 23.1521C0 22.9302 0.0826994 22.7163 0.231952 22.5521L10.087 12.0001L0.231952 1.44813C0.0826994 1.28394 0 1.07001 0 0.848127C0 0.626239 0.0826994 0.412316 0.231952 0.248127C0.3029 0.170125 0.389362 0.107805 0.485796 0.0651605C0.58223 0.0225162 0.686509 0.000488281 0.791952 0.000488281C0.897394 0.000488281 1.00167 0.0225162 1.09811 0.0651605C1.19454 0.107805 1.281 0.170125 1.35195 0.248127L11.769 11.4001C12.079 11.7311 12.079 12.2691 11.769 12.6001L1.35295 23.7521Z" fill="black"/>
</g>
</svg>
