<svg width="12" height="24" viewBox="0 0 12 24" fill="none" xmlns="http://www.w3.org/2000/svg">
<g id="Button &#226;&#134;&#146; SVG">
<path id="Vector" opacity="0.749" d="M1.35246 23.752C1.28186 23.8305 1.19548 23.8931 1.09897 23.9359C1.00246 23.9786 0.898011 24.0005 0.792463 24C0.686748 24.0006 0.582104 23.9788 0.485413 23.9361C0.388722 23.8933 0.302175 23.8306 0.231463 23.752C0.0822112 23.5878 -0.000488281 23.3739 -0.000488281 23.152C-0.000488281 22.9301 0.0822112 22.7162 0.231463 22.552L10.0865 12L0.231463 1.448C0.0822112 1.28382 -0.000488281 1.06989 -0.000488281 0.848005C-0.000488281 0.626117 0.0822112 0.412194 0.231463 0.248005C0.302412 0.170003 0.388874 0.107683 0.485308 0.0650384C0.581742 0.0223941 0.686021 0.000366211 0.791463 0.000366211C0.896905 0.000366211 1.00118 0.0223941 1.09762 0.0650384C1.19405 0.107683 1.28051 0.170003 1.35146 0.248005L11.7685 11.4C12.0785 11.731 12.0785 12.269 11.7685 12.6L1.35246 23.752Z" fill="white"/>
</g>
</svg>
