<svg width="72" height="45" viewBox="0 0 72 45" fill="none" xmlns="http://www.w3.org/2000/svg">
<path d="M35.8581 19.1229C36.1078 19.4875 36.1308 19.9382 36.2918 20.3358C36.4265 20.6672 36.5185 20.9986 36.6203 21.3599C36.7879 21.2737 36.7813 21.1312 36.8175 21.0285C39.0911 14.195 41.3593 7.36041 43.622 0.524732C43.6344 0.443947 43.6625 0.366454 43.7049 0.296752C43.7472 0.227051 43.8029 0.166536 43.8686 0.118734C43.9343 0.070932 44.0088 0.0368016 44.0878 0.0183167C44.1667 -0.000168109 44.2485 -0.0026355 44.3284 0.0110653C48.4355 0.02874 52.5436 0.02874 56.6528 0.0110653C56.7774 -0.00697084 56.9039 0.0254187 57.0049 0.101167C57.1058 0.176915 57.173 0.289871 57.1917 0.415374C60.2955 9.76307 63.407 19.1108 66.5261 28.4585L71.8719 44.5579C71.9113 44.6805 71.9507 44.8064 72 44.9721H71.5893C67.2326 44.9721 62.8747 44.9721 58.5158 44.9721C58.3847 44.9922 58.2511 44.9592 58.144 44.8804C58.037 44.8016 57.9651 44.6833 57.9441 44.5513C55.2236 36.3767 52.4987 28.1956 49.7694 20.0078C49.73 19.8885 49.73 19.7426 49.5953 19.6465C49.4409 19.7559 49.4409 19.9415 49.3916 20.0939C46.6842 28.2309 43.9845 36.369 41.2925 44.5082C41.2817 44.5839 41.256 44.6566 41.217 44.7221C41.1779 44.7877 41.1262 44.8447 41.065 44.8897C41.0038 44.9348 40.9342 44.9671 40.8604 44.9847C40.7866 45.0022 40.7101 45.0047 40.6354 44.992C37.9576 44.9721 35.2798 44.992 32.602 44.992C32.4828 45.0114 32.3609 44.9831 32.2621 44.9132C32.1633 44.8432 32.0955 44.7372 32.073 44.6175C29.4139 36.527 26.7372 28.4386 24.0429 20.3524C24.0195 20.1806 23.9489 20.0187 23.8392 19.8851C23.6848 19.9846 23.6881 20.1602 23.6421 20.3027C20.9479 28.3911 18.258 36.4894 15.5726 44.5977C15.4904 44.8429 15.4214 44.992 15.1027 44.992C10.6781 44.9788 6.25453 44.9788 1.83207 44.992C1.74008 44.992 1.65136 44.992 1.53308 44.9755C5.03775 34.3574 8.54243 23.7526 12.0471 13.161C15.612 13.161 19.1769 13.0715 22.7418 13.2339C24.721 13.3053 26.6859 13.5999 28.6001 14.1121C30.8409 14.7319 32.9076 15.683 34.5471 17.4261C35.0227 17.9603 35.4607 18.5273 35.8581 19.1229Z" fill="#0E212A"/>
<path d="M35.8581 19.1229C35.4609 18.5158 35.022 17.9378 34.5441 17.3931C32.9013 15.6598 30.8379 14.7087 28.5971 14.079C26.6857 13.572 24.724 13.2819 22.7487 13.2141C19.1838 13.0517 15.6189 13.1544 12.054 13.1412C10.6783 13.1388 9.30604 13.0011 7.95679 12.7303C5.27571 12.1371 3.00863 10.9009 1.51695 8.47839C0.716069 7.14319 0.227284 5.64151 0.0876984 4.08733C-0.0489989 2.82355 -0.0258114 1.54737 0.156699 0.289489C0.192841 0.0409385 0.281553 -0.0087699 0.485262 0.00117211C0.84011 0.0177421 1.19496 0.00117211 1.54981 0.00117211C9.24257 0.00117211 16.9331 0.0066914 24.6215 0.0177381C26.9214 0.0177381 28.7121 0.962228 29.9442 2.94732C30.4986 3.8295 30.9757 4.75873 31.3702 5.72445C32.4249 8.33257 33.2036 11.0269 34.1137 13.6946C34.6887 15.3715 35.2275 17.0583 35.7861 18.7419C35.8442 18.8599 35.8689 18.9916 35.8581 19.1229Z" fill="#CE940C"/>
</svg>
