<svg width="30" height="30" viewBox="0 0 30 30" fill="none" xmlns="http://www.w3.org/2000/svg">
<path d="M1.17285 15.2295C1.17285 7.72187 7.25898 1.63574 14.7666 1.63574C22.2742 1.63574 28.3604 7.72187 28.3604 15.2295C28.3604 22.7371 22.2742 28.8232 14.7666 28.8232C7.25898 28.8232 1.17285 22.7371 1.17285 15.2295Z" stroke="white" stroke-width="1.875"/>
<path d="M13.2573 20.0171C13.1851 20.0874 13.0942 20.123 12.9948 20.123C12.8954 20.123 12.8045 20.0874 12.7323 20.0171C12.587 19.8746 12.587 19.643 12.7323 19.5015L17.3514 14.9668L12.7323 10.433C12.587 10.2905 12.587 10.0599 12.7323 9.91742C12.8767 9.77492 13.1129 9.77492 13.2573 9.91742L18.1407 14.709C18.2851 14.8515 18.2851 15.083 18.1407 15.2246L13.2564 20.0171H13.2573Z" fill="#9ADCF9" stroke="white" stroke-width="0.9375"/>
</svg>
