<svg width="31" height="30" viewBox="0 0 31 30" fill="none" xmlns="http://www.w3.org/2000/svg">
<g id="SVG">
<g id="Group">
<path id="Vector" d="M1.58301 15.2295C1.58301 7.72187 7.66914 1.63574 15.1768 1.63574C22.6844 1.63574 28.7705 7.72187 28.7705 15.2295C28.7705 22.7371 22.6844 28.8232 15.1768 28.8232C7.66914 28.8232 1.58301 22.7371 1.58301 15.2295Z" stroke="#114262" stroke-width="1.875"/>
<path id="Vector_2" d="M13.6675 20.0171C13.5953 20.0874 13.5043 20.123 13.405 20.123C13.3056 20.123 13.2146 20.0874 13.1425 20.0171C12.9971 19.8746 12.9971 19.643 13.1425 19.5015L17.7615 14.9668L13.1425 10.433C12.9971 10.2905 12.9971 10.0599 13.1425 9.91742C13.2868 9.77492 13.5231 9.77492 13.6675 9.91742L18.5509 14.709C18.6953 14.8515 18.6953 15.083 18.5509 15.2246L13.6665 20.0171H13.6675Z" fill="#C1DDE5" stroke="#114262" stroke-width="0.9375"/>
</g>
</g>
</svg>
