<svg width="34" height="24" viewBox="0 0 34 24" fill="none" xmlns="http://www.w3.org/2000/svg">
<path id="Vector" d="M12.475 15.8303L12.4728 15.836C11.9619 17.2034 11.2768 18.5139 10.4456 19.7676C9.83435 20.6692 9.14774 21.4575 8.37289 22.1337L5.69387 20.2732C6.10651 19.6853 6.45411 19.1035 6.73679 18.531C7.20159 17.5897 7.57092 16.6369 7.83931 15.6548L8.27919 14.0452L6.63196 13.7786C5.90059 13.6603 5.23972 13.4269 4.60282 13.0599L4.60284 13.0599L4.59312 13.0544C3.96819 12.7005 3.42799 12.2493 2.9953 11.7204L1.83433 12.6702L2.99529 11.7204C2.53978 11.1636 2.17791 10.5517 1.9032 9.82569L1.90323 9.82568L1.89943 9.81585C1.63535 9.13247 1.5 8.39833 1.5 7.62051C1.5 6.82071 1.65972 6.05271 1.98464 5.30446C2.32181 4.54661 2.77383 3.88007 3.3349 3.32403C3.90471 2.75932 4.56446 2.31229 5.32436 1.98093C6.05485 1.66239 6.83201 1.5 7.68937 1.5C8.55219 1.5 9.39023 1.66454 10.1618 1.9873C10.9441 2.3224 11.6077 2.76715 12.1409 3.30985L13.2109 2.25861L12.1409 3.30985C12.6952 3.87398 13.1512 4.54874 13.489 5.30951L13.4902 5.31218C13.8306 6.07493 13.9899 6.83988 13.9899 7.63887C13.9899 8.86368 13.8697 10.1917 13.6226 11.626C13.3793 13.0379 12.9968 14.4512 12.475 15.8303ZM30.9851 15.8303L30.9829 15.836C30.4676 17.215 29.7973 18.527 28.9702 19.7736C28.3745 20.6715 27.6923 21.4593 26.9168 22.1363L24.2312 20.2852C24.6567 19.6949 25.0119 19.1053 25.2896 18.5196C25.7517 17.582 26.1191 16.6329 26.3864 15.6548L26.8263 14.0452L25.1791 13.7786C24.4477 13.6603 23.7869 13.4269 23.15 13.0599L23.15 13.0599L23.1403 13.0544C22.5167 12.7012 21.9686 12.2461 21.5084 11.7018C21.0463 11.1551 20.6877 10.5508 20.4133 9.82569L20.4133 9.82568L20.4095 9.81585C20.1454 9.13248 20.0101 8.39833 20.0101 7.62051C20.0101 6.82074 20.1698 6.05277 20.4947 5.30456C20.8318 4.54666 21.2839 3.88009 21.845 3.32403C22.4148 2.75932 23.0745 2.31229 23.8344 1.98093C24.5649 1.66239 25.3421 1.5 26.1995 1.5C27.0696 1.5 27.9232 1.66724 28.667 1.98521C29.4497 2.31979 30.1224 2.76779 30.6836 3.32403L31.4788 2.52168L30.6836 3.32403C31.2464 3.88171 31.693 4.54407 32.0075 5.28615L32.009 5.28977C32.3402 6.06558 32.5 6.83895 32.5 7.63887C32.5 8.86368 32.3798 10.1917 32.1327 11.626C31.8894 13.0379 31.5069 14.4512 30.9851 15.8303Z" stroke="#006881" stroke-width="3"/>
</svg>
