<svg width="443" height="445" viewBox="0 0 443 445" fill="none" xmlns="http://www.w3.org/2000/svg">
<g style="mix-blend-mode:soft-light">
<rect width="178.447" height="178.447" transform="matrix(0.985782 -0.168028 -0.347375 0.937726 210.087 208.54)" fill="url(#paint0_linear_11_2883)"/>
<rect width="178.447" height="178.447" transform="matrix(0.985782 -0.168028 -0.347375 0.937726 187.302 181.07)" fill="url(#paint1_linear_11_2883)"/>
<rect width="178.447" height="178.447" transform="matrix(0.985782 -0.168028 -0.347375 0.937726 164.518 153.6)" fill="url(#paint2_linear_11_2883)"/>
<rect width="178.447" height="178.447" transform="matrix(0.985782 -0.168028 -0.347375 0.937726 141.733 126.13)" fill="url(#paint3_linear_11_2883)"/>
<rect width="178.447" height="178.447" transform="matrix(0.985782 -0.168028 -0.347375 0.937726 118.949 98.6594)" fill="url(#paint4_linear_11_2883)"/>
</g>
<defs>
<linearGradient id="paint0_linear_11_2883" x1="199.447" y1="197.598" x2="38.8447" y2="197.598" gradientUnits="userSpaceOnUse">
<stop stop-color="#F7F7F7" stop-opacity="0.85"/>
<stop offset="1" stop-color="#3F3F3F" stop-opacity="0.83"/>
</linearGradient>
<linearGradient id="paint1_linear_11_2883" x1="197.217" y1="195.367" x2="11.4676" y2="202.786" gradientUnits="userSpaceOnUse">
<stop stop-color="white"/>
<stop offset="1" stop-color="#3F3F3F"/>
</linearGradient>
<linearGradient id="paint2_linear_11_2883" x1="192.755" y1="190.906" x2="11.467" y2="198.318" gradientUnits="userSpaceOnUse">
<stop stop-color="white"/>
<stop offset="1" stop-color="#3F3F3F"/>
</linearGradient>
<linearGradient id="paint3_linear_11_2883" x1="196.872" y1="200.174" x2="6.32816" y2="202.715" gradientUnits="userSpaceOnUse">
<stop stop-color="white"/>
<stop offset="1" stop-color="#3F3F3F"/>
</linearGradient>
<linearGradient id="paint4_linear_11_2883" x1="179.372" y1="177.523" x2="-0.0185902" y2="180.062" gradientUnits="userSpaceOnUse">
<stop stop-color="white"/>
<stop offset="1" stop-color="#3F3F3F"/>
</linearGradient>
</defs>
</svg>
