<svg width="360" height="360" viewBox="0 0 360 360" fill="none" xmlns="http://www.w3.org/2000/svg">
<g style="mix-blend-mode:soft-light">
<g clip-path="url(#paint0_diamond_2046_23_clip_path)" data-figma-skip-parse="true"><g transform="matrix(0.0482143 0.0776786 -0.0776786 0.0482143 180.001 180)"><rect x="0" y="0" width="1871.93" height="1871.93" fill="url(#paint0_diamond_2046_23)" opacity="1" shape-rendering="crispEdges"/><rect x="0" y="0" width="1871.93" height="1871.93" transform="scale(1 -1)" fill="url(#paint0_diamond_2046_23)" opacity="1" shape-rendering="crispEdges"/><rect x="0" y="0" width="1871.93" height="1871.93" transform="scale(-1 1)" fill="url(#paint0_diamond_2046_23)" opacity="1" shape-rendering="crispEdges"/><rect x="0" y="0" width="1871.93" height="1871.93" transform="scale(-1)" fill="url(#paint0_diamond_2046_23)" opacity="1" shape-rendering="crispEdges"/></g></g><path d="M214.286 180C214.286 198.935 198.936 214.285 180.001 214.285V274.285C232.073 274.285 274.286 232.072 274.286 180H214.286ZM180.001 214.285C161.065 214.285 145.715 198.935 145.715 180H85.7148C85.7148 232.072 127.928 274.285 180.001 274.285V214.285ZM145.715 180C145.715 161.064 161.065 145.714 180.001 145.714V85.7139C127.928 85.7139 85.7148 127.927 85.7148 180H145.715ZM180.001 145.714C198.936 145.714 214.286 161.064 214.286 180H274.286C274.286 127.927 232.073 85.7139 180.001 85.7139V145.714Z" data-figma-gradient-fill="{&#34;type&#34;:&#34;GRADIENT_DIAMOND&#34;,&#34;stops&#34;:[{&#34;color&#34;:{&#34;r&#34;:1.0,&#34;g&#34;:1.0,&#34;b&#34;:1.0,&#34;a&#34;:1.0},&#34;position&#34;:0.0},{&#34;color&#34;:{&#34;r&#34;:1.0,&#34;g&#34;:1.0,&#34;b&#34;:1.0,&#34;a&#34;:0.0},&#34;position&#34;:0.34189924597740173},{&#34;color&#34;:{&#34;r&#34;:1.0,&#34;g&#34;:1.0,&#34;b&#34;:1.0,&#34;a&#34;:1.0},&#34;position&#34;:0.74996316432952881},{&#34;color&#34;:{&#34;r&#34;:1.0,&#34;g&#34;:1.0,&#34;b&#34;:1.0,&#34;a&#34;:0.0},&#34;position&#34;:1.0}],&#34;stopsVar&#34;:[],&#34;transform&#34;:{&#34;m00&#34;:96.428565979003906,&#34;m01&#34;:-155.35716247558594,&#34;m02&#34;:209.46487426757812,&#34;m10&#34;:155.35716247558594,&#34;m11&#34;:96.428565979003906,&#34;m12&#34;:54.106716156005859},&#34;opacity&#34;:1.0,&#34;blendMode&#34;:&#34;NORMAL&#34;,&#34;visible&#34;:true}"/>
<g clip-path="url(#paint1_diamond_2046_23_clip_path)" data-figma-skip-parse="true"><g transform="matrix(0.0803571 0.129464 -0.129464 0.0803571 180 180)"><rect x="0" y="0" width="1510.45" height="1510.45" fill="url(#paint1_diamond_2046_23)" opacity="1" shape-rendering="crispEdges"/><rect x="0" y="0" width="1510.45" height="1510.45" transform="scale(1 -1)" fill="url(#paint1_diamond_2046_23)" opacity="1" shape-rendering="crispEdges"/><rect x="0" y="0" width="1510.45" height="1510.45" transform="scale(-1 1)" fill="url(#paint1_diamond_2046_23)" opacity="1" shape-rendering="crispEdges"/><rect x="0" y="0" width="1510.45" height="1510.45" transform="scale(-1)" fill="url(#paint1_diamond_2046_23)" opacity="1" shape-rendering="crispEdges"/></g></g><path d="M257.143 180C257.143 222.605 222.605 257.143 180 257.143V317.143C255.742 317.143 317.143 255.742 317.143 180H257.143ZM180 257.143C137.395 257.143 102.857 222.605 102.857 180H42.8574C42.8574 255.742 104.258 317.143 180 317.143V257.143ZM102.857 180C102.857 137.395 137.395 102.857 180 102.857V42.8571C104.258 42.8571 42.8574 104.258 42.8574 180H102.857ZM180 102.857C222.605 102.857 257.143 137.395 257.143 180H317.143C317.143 104.258 255.742 42.8571 180 42.8571V102.857Z" data-figma-gradient-fill="{&#34;type&#34;:&#34;GRADIENT_DIAMOND&#34;,&#34;stops&#34;:[{&#34;color&#34;:{&#34;r&#34;:1.0,&#34;g&#34;:1.0,&#34;b&#34;:1.0,&#34;a&#34;:1.0},&#34;position&#34;:0.0},{&#34;color&#34;:{&#34;r&#34;:1.0,&#34;g&#34;:1.0,&#34;b&#34;:1.0,&#34;a&#34;:0.0},&#34;position&#34;:0.34189924597740173},{&#34;color&#34;:{&#34;r&#34;:1.0,&#34;g&#34;:1.0,&#34;b&#34;:1.0,&#34;a&#34;:1.0},&#34;position&#34;:0.74996316432952881},{&#34;color&#34;:{&#34;r&#34;:1.0,&#34;g&#34;:1.0,&#34;b&#34;:1.0,&#34;a&#34;:0.0},&#34;position&#34;:1.0}],&#34;stopsVar&#34;:[],&#34;transform&#34;:{&#34;m00&#34;:160.71426391601562,&#34;m01&#34;:-258.92858886718750,&#34;m02&#34;:229.10745239257812,&#34;m10&#34;:258.92858886718750,&#34;m11&#34;:160.71426391601562,&#34;m12&#34;:-29.821519851684570},&#34;opacity&#34;:1.0,&#34;blendMode&#34;:&#34;NORMAL&#34;,&#34;visible&#34;:true}"/>
<g clip-path="url(#paint2_diamond_2046_23_clip_path)" data-figma-skip-parse="true"><g transform="matrix(0.1125 0.18125 -0.18125 0.1125 180 180)"><rect x="0" y="0" width="1355.54" height="1355.54" fill="url(#paint2_diamond_2046_23)" opacity="1" shape-rendering="crispEdges"/><rect x="0" y="0" width="1355.54" height="1355.54" transform="scale(1 -1)" fill="url(#paint2_diamond_2046_23)" opacity="1" shape-rendering="crispEdges"/><rect x="0" y="0" width="1355.54" height="1355.54" transform="scale(-1 1)" fill="url(#paint2_diamond_2046_23)" opacity="1" shape-rendering="crispEdges"/><rect x="0" y="0" width="1355.54" height="1355.54" transform="scale(-1)" fill="url(#paint2_diamond_2046_23)" opacity="1" shape-rendering="crispEdges"/></g></g><path d="M300 180C300 246.274 246.274 300 180 300V360C279.411 360 360 279.411 360 180H300ZM180 300C113.726 300 60 246.274 60 180H0C0 279.411 80.5887 360 180 360V300ZM60 180C60 113.726 113.726 60 180 60V0C80.5887 0 0 80.5887 0 180H60ZM180 60C246.274 60 300 113.726 300 180H360C360 80.5887 279.411 0 180 0V60Z" data-figma-gradient-fill="{&#34;type&#34;:&#34;GRADIENT_DIAMOND&#34;,&#34;stops&#34;:[{&#34;color&#34;:{&#34;r&#34;:1.0,&#34;g&#34;:1.0,&#34;b&#34;:1.0,&#34;a&#34;:1.0},&#34;position&#34;:0.0},{&#34;color&#34;:{&#34;r&#34;:1.0,&#34;g&#34;:1.0,&#34;b&#34;:1.0,&#34;a&#34;:0.0},&#34;position&#34;:0.34189924597740173},{&#34;color&#34;:{&#34;r&#34;:1.0,&#34;g&#34;:1.0,&#34;b&#34;:1.0,&#34;a&#34;:1.0},&#34;position&#34;:0.74996316432952881},{&#34;color&#34;:{&#34;r&#34;:1.0,&#34;g&#34;:1.0,&#34;b&#34;:1.0,&#34;a&#34;:0.0},&#34;position&#34;:1.0}],&#34;stopsVar&#34;:[],&#34;transform&#34;:{&#34;m00&#34;:224.99996948242188,&#34;m01&#34;:-362.50003051757812,&#34;m02&#34;:248.75003051757812,&#34;m10&#34;:362.50003051757812,&#34;m11&#34;:224.99996948242188,&#34;m12&#34;:-113.750},&#34;opacity&#34;:1.0,&#34;blendMode&#34;:&#34;NORMAL&#34;,&#34;visible&#34;:true}"/>
</g>
<defs>
<clipPath id="paint0_diamond_2046_23_clip_path"><path d="M214.286 180C214.286 198.935 198.936 214.285 180.001 214.285V274.285C232.073 274.285 274.286 232.072 274.286 180H214.286ZM180.001 214.285C161.065 214.285 145.715 198.935 145.715 180H85.7148C85.7148 232.072 127.928 274.285 180.001 274.285V214.285ZM145.715 180C145.715 161.064 161.065 145.714 180.001 145.714V85.7139C127.928 85.7139 85.7148 127.927 85.7148 180H145.715ZM180.001 145.714C198.936 145.714 214.286 161.064 214.286 180H274.286C274.286 127.927 232.073 85.7139 180.001 85.7139V145.714Z"/></clipPath><clipPath id="paint1_diamond_2046_23_clip_path"><path d="M257.143 180C257.143 222.605 222.605 257.143 180 257.143V317.143C255.742 317.143 317.143 255.742 317.143 180H257.143ZM180 257.143C137.395 257.143 102.857 222.605 102.857 180H42.8574C42.8574 255.742 104.258 317.143 180 317.143V257.143ZM102.857 180C102.857 137.395 137.395 102.857 180 102.857V42.8571C104.258 42.8571 42.8574 104.258 42.8574 180H102.857ZM180 102.857C222.605 102.857 257.143 137.395 257.143 180H317.143C317.143 104.258 255.742 42.8571 180 42.8571V102.857Z"/></clipPath><clipPath id="paint2_diamond_2046_23_clip_path"><path d="M300 180C300 246.274 246.274 300 180 300V360C279.411 360 360 279.411 360 180H300ZM180 300C113.726 300 60 246.274 60 180H0C0 279.411 80.5887 360 180 360V300ZM60 180C60 113.726 113.726 60 180 60V0C80.5887 0 0 80.5887 0 180H60ZM180 60C246.274 60 300 113.726 300 180H360C360 80.5887 279.411 0 180 0V60Z"/></clipPath><linearGradient id="paint0_diamond_2046_23" x1="0" y1="0" x2="500" y2="500" gradientUnits="userSpaceOnUse">
<stop stop-color="white"/>
<stop offset="0.341899" stop-color="white" stop-opacity="0"/>
<stop offset="0.749963" stop-color="white"/>
<stop offset="1" stop-color="white" stop-opacity="0"/>
</linearGradient>
<linearGradient id="paint1_diamond_2046_23" x1="0" y1="0" x2="500" y2="500" gradientUnits="userSpaceOnUse">
<stop stop-color="white"/>
<stop offset="0.341899" stop-color="white" stop-opacity="0"/>
<stop offset="0.749963" stop-color="white"/>
<stop offset="1" stop-color="white" stop-opacity="0"/>
</linearGradient>
<linearGradient id="paint2_diamond_2046_23" x1="0" y1="0" x2="500" y2="500" gradientUnits="userSpaceOnUse">
<stop stop-color="white"/>
<stop offset="0.341899" stop-color="white" stop-opacity="0"/>
<stop offset="0.749963" stop-color="white"/>
<stop offset="1" stop-color="white" stop-opacity="0"/>
</linearGradient>
</defs>
</svg>
