<svg width="50" height="50" viewBox="0 0 50 50" fill="none" xmlns="http://www.w3.org/2000/svg">
<g id="Vector">
<path d="M24.6268 49.9998C38.2279 49.9998 49.2537 38.974 49.2537 25.3729C49.2537 11.7719 38.2279 0.746094 24.6268 0.746094C11.0258 0.746094 0 11.7719 0 25.3729C0 38.974 11.0258 49.9998 24.6268 49.9998Z" fill="white"/>
<path d="M38.0429 13.4793L37.5335 13.664L9.88991 23.6239C9.69401 23.6844 9.52375 23.8083 9.40582 23.976C9.28788 24.1438 9.22893 24.3459 9.23821 24.5508C9.24749 24.7556 9.32448 24.9516 9.4571 25.108C9.58973 25.2643 9.7705 25.3723 9.97107 25.4149L17.1268 27.3739L19.7966 35.2097C19.8733 35.4017 19.9957 35.5722 20.1532 35.7062C20.3107 35.8402 20.4986 35.9338 20.7004 35.9787C20.9023 36.0237 21.1121 36.0186 21.3115 35.9641C21.511 35.9096 21.6942 35.8072 21.8451 35.6658L25.5419 32.1733L32.8013 37.0959C33.6884 37.7003 34.9533 37.2526 35.18 36.2563L39.9878 15.0129C40.2229 13.9606 39.1147 13.0959 38.0429 13.4793ZM34.5139 18.1948L21.4365 28.8851C21.3074 28.9874 21.2232 29.1359 21.2015 29.2992L21.0699 30.3851L20.7089 33.4354C20.7119 33.4725 20.7 33.5093 20.6759 33.5376C20.6517 33.566 20.6173 33.5836 20.5802 33.5865C20.5431 33.5895 20.5063 33.5776 20.478 33.5535C20.4496 33.5293 20.432 33.4949 20.4291 33.4578L19.4132 30.4102L18.3638 27.2899C18.3194 27.1496 18.3253 26.9983 18.3805 26.8619C18.4356 26.7255 18.5366 26.6127 18.666 26.5427L34.1082 17.6938C34.4636 17.4867 34.8274 17.9373 34.5139 18.1948Z" fill="#114262"/>
</g>
</svg>
