<svg width="51" height="50" viewBox="0 0 51 50" fill="none" xmlns="http://www.w3.org/2000/svg">
<g id="Frame" clip-path="url(#clip0_5_1662)">
<g id="Group">
<g id="Layer 2">
<g id="09.whatsapp">
<path id="Vector" d="M25.2539 50C39.061 50 50.2539 38.8071 50.2539 25C50.2539 11.1929 39.061 0 25.2539 0C11.4468 0 0.253906 11.1929 0.253906 25C0.253906 38.8071 11.4468 50 25.2539 50Z" fill="white"/>
<g id="Group_2">
<path id="Vector_2" d="M36.2766 13.9771C33.6756 11.3501 30.2214 9.73905 26.5372 9.43454C22.8529 9.13003 19.1811 10.1521 16.184 12.3164C13.187 14.4807 11.062 17.6448 10.1924 21.2379C9.32276 24.8309 9.76573 28.6165 11.4414 31.9118L9.79652 39.8975C9.77945 39.977 9.77897 40.0592 9.7951 40.1389C9.81123 40.2185 9.84363 40.294 9.89027 40.3606C9.95859 40.4617 10.0561 40.5395 10.1698 40.5836C10.2835 40.6278 10.408 40.6362 10.5266 40.6078L18.3533 38.7527C21.6393 40.3859 25.3982 40.8004 28.9611 39.9224C32.5239 39.0443 35.6598 36.9307 37.8106 33.9577C39.9614 30.9846 40.9877 27.3449 40.7068 23.6862C40.4259 20.0274 38.8561 16.587 36.2766 13.9771ZM33.8363 33.4544C32.0366 35.249 29.7192 36.4336 27.2106 36.8413C24.702 37.2491 22.1287 36.8593 19.8533 35.7271L18.7624 35.1873L13.9641 36.3237L13.9783 36.264L14.9727 31.4345L14.4386 30.3805C13.276 28.0972 12.8658 25.5045 13.2669 22.9738C13.668 20.4431 14.8598 18.1043 16.6715 16.2924C18.948 14.0167 22.035 12.7383 25.2539 12.7383C28.4728 12.7383 31.5599 14.0167 33.8363 16.2924C33.8557 16.3147 33.8766 16.3355 33.8988 16.3549C36.147 18.6365 37.4021 21.7144 37.3904 24.9175C37.3787 28.1207 36.1011 31.1893 33.8363 33.4544Z" fill="#114262"/>
<path id="Vector_3" d="M33.4103 29.9116C32.8222 30.8377 31.8933 31.9712 30.7257 32.2525C28.6802 32.7468 25.541 32.2695 21.6347 28.6275L21.5864 28.5849C18.1518 25.4002 17.2597 22.7496 17.4757 20.6474C17.595 19.4542 18.5893 18.3746 19.4274 17.6701C19.5599 17.557 19.717 17.4765 19.8862 17.435C20.0553 17.3935 20.2319 17.3921 20.4017 17.4311C20.5714 17.47 20.7298 17.5481 20.864 17.6592C20.9982 17.7702 21.1045 17.9111 21.1745 18.0706L22.4387 20.9116C22.5209 21.0958 22.5513 21.2989 22.5268 21.4991C22.5023 21.6992 22.4237 21.889 22.2995 22.0479L21.6603 22.8775C21.5232 23.0488 21.4404 23.2572 21.4227 23.4759C21.405 23.6946 21.4531 23.9136 21.5609 24.1047C21.9188 24.7326 22.7768 25.6559 23.7285 26.511C24.7967 27.4769 25.9813 28.3604 26.7313 28.6616C26.932 28.7435 27.1527 28.7635 27.3648 28.719C27.577 28.6744 27.7709 28.5674 27.9217 28.4116L28.6632 27.6644C28.8062 27.5233 28.9841 27.4227 29.1788 27.3728C29.3734 27.3229 29.5778 27.3255 29.7711 27.3803L32.7739 28.2326C32.9396 28.2834 33.0914 28.3714 33.2178 28.4899C33.3442 28.6084 33.4419 28.7542 33.5033 28.9162C33.5647 29.0782 33.5882 29.2522 33.5721 29.4247C33.556 29.5972 33.5007 29.7637 33.4103 29.9116Z" fill="#114262"/>
</g>
</g>
</g>
</g>
</g>
<defs>
<clipPath id="clip0_5_1662">
<rect width="49.9999" height="49.9999" fill="white" transform="translate(0.253906)"/>
</clipPath>
</defs>
</svg>
