<svg width="42" height="42" viewBox="0 0 42 42" fill="none" xmlns="http://www.w3.org/2000/svg">
<path id="Vector" d="M21 41C32.0457 41 41 32.0457 41 21C41 9.95428 32.0457 1 21 1M21 41C9.95428 41 1 32.0457 1 21C1 9.95428 9.95428 1 21 1M21 41V1M21 41C28.5296 37.243 31.8071 27.0945 30.8325 17.7734M21 1C25.0661 3.0288 27.8922 6.92149 29.4783 11.5412M15.9887 27.3249H39.8749M2.12515 27.3249H7.35693M33.4456 14.675H39.8749M33.4456 14.675C33.4456 16.4543 32.0032 17.8966 30.224 17.8966C28.4447 17.8966 27.0024 16.4543 27.0024 14.675M33.4456 14.675C33.4456 12.8959 32.0032 11.4535 30.224 11.4535C28.4447 11.4535 27.0024 12.8959 27.0024 14.675M2.12515 14.675H27.0024M12.9172 31.5292C14.5495 35.7705 17.1885 39.0981 21.0003 41M21.0003 1C13.7658 4.60971 10.4566 14.1197 11.0728 23.1271M15.9887 27.3957C15.9887 29.7793 14.0564 31.7116 11.6728 31.7116C9.28921 31.7116 7.35693 29.7793 7.35693 27.3957C7.35693 25.012 9.28921 23.0798 11.6728 23.0798C14.0564 23.0798 15.9887 25.012 15.9887 27.3957Z" stroke="#004975" stroke-width="2" stroke-miterlimit="10"/>
</svg>
