<svg width="42" height="42" viewBox="0 0 42 42" fill="none" xmlns="http://www.w3.org/2000/svg">
<path id="Vector" d="M10.9585 1L1 10.9585M10.9585 1V8.46888C10.9585 9.8439 9.8439 10.9585 8.46888 10.9585H1M10.9585 1L30.8755 1V18.7563M1 10.9585V41H30.8755V29.3122M25.8963 5.97925H15.9378M25.8963 10.9585H15.9378M25.8963 15.9378H5.97927M20.917 20.917H5.97943M20.917 25.8963H5.97943M10.9585 35.7718L11.6515 34.6938C12.5755 33.2565 14.6765 33.2565 15.6004 34.6938C15.813 35.0244 16.1052 35.2964 16.4502 35.4847C16.7951 35.6731 17.1819 35.7718 17.575 35.7718H20.0872M35.6322 22.1315C31.5072 29.2762 27.0371 34.4178 25.6479 33.6158C24.2587 32.8137 26.4764 26.3716 30.6013 19.227M35.6322 22.1315C39.7572 14.9869 41.9749 8.54481 40.5857 7.74274C39.1964 6.94066 34.7263 12.0823 30.6013 19.227M35.6322 22.1315L30.6013 19.227M24.403 35.7718L25.6479 33.6157" stroke="#004975" stroke-width="2" stroke-miterlimit="10" stroke-linecap="round" stroke-linejoin="round"/>
</svg>
