<svg width="42" height="42" viewBox="0 0 42 42" fill="none" xmlns="http://www.w3.org/2000/svg">
<path d="M41 21L36.7081 25.209L38.2487 30.9585L32.4992 32.4992L30.9585 38.2485M41 21L36.7081 16.791L38.2487 11.0415L32.4992 9.50083L30.9585 3.75129M41 21H33.5311M30.9585 3.75129L25.209 5.29195L21 1M30.9585 3.75129L27.2571 10.1622M21 1L16.791 5.29195L11.0415 3.75129M21 1L21 8.46888M11.0415 3.75129L9.50083 9.50083L3.75137 11.0415L5.29204 16.791L1 21M11.0415 3.75129L14.7429 10.1622M1 21L5.29204 25.209L3.75137 30.9585L9.50083 32.4992L11.0415 38.2485M1 21H8.46888M11.0415 38.2485L16.791 36.708L21 41M11.0415 38.2485L14.7428 31.8377M21 41L25.209 36.708L30.9585 38.2485M21 41L21 33.5311M30.9585 38.2485L27.2572 31.8377M33.5311 21C33.5311 27.8749 27.8749 33.5311 21 33.5311M33.5311 21C33.5311 14.1251 27.8749 8.46888 21 8.46888M21 33.5311C14.1251 33.5311 8.46888 27.8749 8.46888 21M8.46888 21C8.46888 14.1251 14.1251 8.46888 21 8.46888M31.8377 14.7428L38.2486 11.0414M3.75129 11.0414L10.1622 14.7428M3.75129 30.9585L10.1622 27.2571M31.8094 27.3055L38.2037 31.0355M21 24.8833L24.8331 26.8985L24.1011 22.6303L27.2021 19.6075L22.9166 18.9847L21 15.1014L19.0834 18.9847L14.7979 19.6075L17.8989 22.6303L17.1669 26.8985L21 24.8833Z" stroke="#004975" stroke-width="2" stroke-miterlimit="10" stroke-linecap="round" stroke-linejoin="round"/>
</svg>
