<svg width="46" height="40" viewBox="0 0 46 40" fill="none" xmlns="http://www.w3.org/2000/svg">
<path id="Vector" d="M43.1124 9.52688C42.814 9.52688 43.0161 9.9839 42.1498 6.44196C42.0632 6.09919 42.0825 6.17536 39.9745 4.09018C39.3873 3.5189 38.7809 3.92832 36.7981 4.58529C35.104 2.11926 35.1522 2.05261 34.6805 1.90979C30.5993 0.957657 30.5127 0.786272 30.0218 1.14808L26.8358 3.50938L23.5824 0.28164C23.4929 0.192398 23.3865 0.121565 23.2692 0.0732258C23.1519 0.0248872 23.0261 0 22.899 0C22.7719 0 22.6461 0.0248872 22.5288 0.0732258C22.4115 0.121565 22.3051 0.192398 22.2156 0.28164C18.8852 3.58555 20.2905 2.62389 16.2671 4.60434L12.8886 2.10022C12.5421 1.84314 12.7057 1.90979 8.46088 1.90979C8.02774 1.90979 8.24913 1.8241 4.03319 4.95663C3.64818 5.24227 3.70593 5.32796 2.85889 9.52688C2.47968 9.53063 2.10494 9.60823 1.75604 9.75524C1.40715 9.90225 1.09095 10.1158 0.825492 10.3837C0.289372 10.9247 -0.00751388 11.6543 0.000144572 12.4119C0.00780303 13.1694 0.319379 13.8929 0.866329 14.4233C1.41328 14.9536 2.1508 15.2473 2.91665 15.2397L7.19033 30.4739H6.5358C6.28052 30.4739 6.03569 30.5742 5.85518 30.7527C5.67467 30.9313 5.57326 31.1735 5.57326 31.426V35.2345C5.57326 35.4871 5.67467 35.7293 5.85518 35.9078C6.03569 36.0864 6.28052 36.1867 6.5358 36.1867H9.51968C9.7406 37.2629 10.3308 38.2304 11.1904 38.9254C12.05 39.6204 13.126 40 14.2361 40C15.3463 40 16.4223 39.6204 17.2819 38.9254C18.1414 38.2304 18.7317 37.2629 18.9526 36.1867H26.8454C27.0663 37.2629 27.6566 38.2304 28.5161 38.9254C29.3757 39.6204 30.4517 40 31.5619 40C32.672 40 33.748 39.6204 34.6076 38.9254C35.4672 38.2304 36.0574 37.2629 36.2783 36.1867H39.2622C39.5175 36.1867 39.7623 36.0864 39.9428 35.9078C40.1233 35.7293 40.2248 35.4871 40.2248 35.2345V31.426C40.2248 31.1735 40.1233 30.9313 39.9428 30.7527C39.7623 30.5742 39.5175 30.4739 39.2622 30.4739H38.6077C43.353 13.5735 42.7755 15.2397 43.1124 15.2397C43.8782 15.2397 44.6127 14.9388 45.1542 14.4031C45.6958 13.8674 46 13.1409 46 12.3833C46 11.6257 45.6958 10.8992 45.1542 10.3635C44.6127 9.82782 43.8782 9.52688 43.1124 9.52688ZM39.0023 5.85164L40.321 7.15606L40.9178 9.52688H33.7565L34.2955 7.40362C37.1542 6.461 36.0858 6.82281 39.0023 5.85164ZM30.8111 2.94762L33.8527 3.69981L34.873 5.2137C32.1779 6.09919 32.8228 5.35652 31.7736 9.52688H30.0314L27.7117 7.23223V5.24227L30.8111 2.94762ZM22.899 2.30017L25.7866 5.15658C25.7866 8.58426 25.4594 7.68926 27.3171 9.52688H22.3119C23.1493 7.02276 23.2744 8.11772 21.1857 4.00449L22.899 2.30017ZM14.6115 9.52688C15.1987 7.77495 14.7463 8.46049 16.7291 6.49909L19.6167 5.08993L20.9354 7.69878L20.2809 9.52688H14.6115ZM8.77852 3.81406H11.9934L14.6982 5.82307C13.0618 7.4417 13.5527 6.64191 12.5806 9.52688H11.9453C10.1838 6.05158 10.232 5.86116 9.61593 5.71834L6.91119 5.20418L8.77852 3.81406ZM5.3615 6.84186L8.7689 7.50835L9.78919 9.52688H4.82248L5.3615 6.84186ZM7.49834 32.3781H10.386C8.64377 34.6537 10.8576 34.2824 7.49834 34.2824V32.3781ZM14.2361 38.091C13.665 38.091 13.1067 37.9234 12.6319 37.6096C12.157 37.2957 11.7869 36.8496 11.5683 36.3276C11.3498 35.8057 11.2926 35.2314 11.404 34.6773C11.5154 34.1232 11.7904 33.6142 12.1943 33.2148C12.5981 32.8153 13.1126 32.5432 13.6728 32.433C14.2329 32.3228 14.8135 32.3794 15.3412 32.5956C15.8688 32.8118 16.3198 33.1779 16.6371 33.6476C16.9544 34.1173 17.1238 34.6696 17.1238 35.2345C17.1238 35.9921 16.8195 36.7187 16.278 37.2543C15.7365 37.79 15.002 38.091 14.2361 38.091ZM26.8454 34.2824H18.9526C18.8149 33.5904 18.5186 32.939 18.0863 32.3781H27.7117C27.2795 32.939 26.9831 33.5904 26.8454 34.2824ZM31.5619 38.091C30.9908 38.091 30.4325 37.9234 29.9576 37.6096C29.4827 37.2957 29.1126 36.8496 28.8941 36.3276C28.6755 35.8057 28.6183 35.2314 28.7297 34.6773C28.8412 34.1232 29.1162 33.6142 29.52 33.2148C29.9239 32.8153 30.4384 32.5432 30.9985 32.433C31.5587 32.3228 32.1393 32.3794 32.6669 32.5956C33.1946 32.8118 33.6456 33.1779 33.9628 33.6476C34.2801 34.1173 34.4495 34.6696 34.4495 35.2345C34.4495 35.9921 34.1453 36.7187 33.6037 37.2543C33.0622 37.79 32.3277 38.091 31.5619 38.091ZM38.2997 34.2824C34.9596 34.2824 37.1061 34.6252 35.412 32.3781H38.2997V34.2824ZM36.6056 30.4739H9.19242L4.91873 15.2397H40.8793L36.6056 30.4739ZM43.1124 13.3354H2.68564C2.43035 13.3354 2.18553 13.2351 2.00502 13.0565C1.8245 12.878 1.72309 12.6358 1.72309 12.3833C1.72309 12.1308 1.8245 11.8886 2.00502 11.71C2.18553 11.5315 2.43035 11.4312 2.68564 11.4312H43.1124C43.3677 11.4312 43.6125 11.5315 43.793 11.71C43.9735 11.8886 44.0749 12.1308 44.0749 12.3833C44.0749 12.6358 43.9735 12.878 43.793 13.0565C43.6125 13.2351 43.3677 13.3354 43.1124 13.3354Z" fill="#004975"/>
</svg>
